<?xml version="1.0" encoding="UTF-8" standalone="no"?>
<!DOCTYPE svg PUBLIC "-//W3C//DTD SVG 1.1//EN" "http://www.w3.org/Graphics/SVG/1.1/DTD/svg11.dtd">
<svg width="100%" height="100%" viewBox="0 0 48 48" version="1.1" xmlns="http://www.w3.org/2000/svg" xmlns:xlink="http://www.w3.org/1999/xlink" xml:space="preserve" xmlns:serif="http://www.serif.com/" style="fill-rule:evenodd;clip-rule:evenodd;stroke-linejoin:round;stroke-miterlimit:2;">
    <g transform="matrix(1.33073e-16,-0.724415,-0.724415,-1.33073e-16,103.073,252.878)">
        <path d="M342.562,81.08C331.842,82.18 321.292,85.347 312.774,92.145C306.566,97.102 302.074,103.845 299.324,111.254C297.349,116.573 296.314,122.241 296.008,127.898C295.936,129.222 295.892,130.567 295.911,131.907C294.098,128.696 292.291,125.472 290.304,122.38C289.582,121.257 287.782,122.299 288.51,123.43C291.278,127.737 293.698,132.305 296.27,136.732C296.683,137.445 297.634,137.362 298.064,136.732C301.067,132.345 304.07,127.957 307.073,123.567C307.832,122.458 306.03,121.42 305.278,122.518C302.852,126.063 300.428,129.606 298.002,133.152C297.456,124.971 299.225,116.204 302.532,108.861C305.42,102.45 309.853,96.815 315.522,92.635C323.355,86.863 332.988,84.141 342.562,83.16C343.882,83.024 343.895,80.945 342.562,81.08Z" style="fill-rule:nonzero;"/>
    </g>
</svg>
